<?xml version="1.0" encoding="utf-8"?>
<!-- Generator: Adobe Illustrator 15.0.0, SVG Export Plug-In . SVG Version: 6.00 Build 0)  -->
<!DOCTYPE svg PUBLIC "-//W3C//DTD SVG 1.1//EN" "http://www.w3.org/Graphics/SVG/1.1/DTD/svg11.dtd">
<svg version="1.1" id="Calque_1" xmlns="http://www.w3.org/2000/svg" xmlns:xlink="http://www.w3.org/1999/xlink" x="0px" y="0px"
	 width="841.891px" height="595.281px" viewBox="0 0 841.891 595.281" enable-background="new 0 0 841.891 595.281"
	 xml:space="preserve">
<g id="GUIDES_64">
</g>
<g id="Layer_3">
</g>
<g id="Layer_2">
	<path fill="#231F20" d="M310.26,334.845h31.625c2.79,0,5.58,2.79,5.58,5.581v199.047c0,10.23,8.371,18.603,18.603,18.603h72.551
		c10.23,0,18.604-8.371,18.604-18.603V340.427c0-2.791,2.79-5.581,5.58-5.581h52.087c9.302,0,17.673-6.511,18.603-15.813
		l12.092-72.55c1.86-11.161-7.44-22.323-18.603-22.323h-61.388c-4.651,0-8.372-3.72-8.372-8.371v-46.506
		c0-12.092,6.512-18.603,18.603-18.603h54.876c10.231,0,18.604-8.371,18.604-18.604v-74.41c0-10.23-8.371-18.603-18.604-18.603
		H464.66c-120.915,0-118.125,97.663-118.125,111.615v67.898c0,2.79-2.79,5.58-5.581,5.58H309.33
		c-10.231,0-18.604,8.371-18.604,18.604v72.551C291.657,326.474,300.028,334.845,310.26,334.845z"/>
</g>
</svg>
