<?xml version="1.0" encoding="utf-8"?>
<!-- Generator: Adobe Illustrator 15.0.0, SVG Export Plug-In . SVG Version: 6.00 Build 0)  -->
<!DOCTYPE svg PUBLIC "-//W3C//DTD SVG 1.1//EN" "http://www.w3.org/Graphics/SVG/1.1/DTD/svg11.dtd">
<svg version="1.1" id="Calque_1" xmlns="http://www.w3.org/2000/svg" xmlns:xlink="http://www.w3.org/1999/xlink" x="0px" y="0px"
	 width="841.891px" height="595.281px" viewBox="0 0 841.891 595.281" enable-background="new 0 0 841.891 595.281"
	 xml:space="preserve">
<g id="GUIDES_64">
</g>
<g id="Layer_3">
</g>
<g id="Layer_2">
	<path fill="#231F20" d="M229.339,247.414C230.269,247.414,230.269,247.414,229.339,247.414c-8.371,0-16.742-1.859-24.184-3.721
		c-12.092-3.721-23.253,7.439-19.532,18.603c10.23,39.995,41.854,71.62,81.852,79.991c-9.302,2.79-18.603,3.721-27.904,3.721
		c-9.301,0-15.812,10.23-11.16,18.603c17.672,32.555,52.087,54.878,90.222,55.809h9.302c10.231,0,18.604,8.37,18.604,18.603
		s-8.371,18.604-18.604,18.604c-12.092,0-26.974-0.931-41.854-4.65c-9.303-1.86-18.604-1.86-26.975,0.93
		c-15.813,5.581-32.555,10.231-50.227,12.092c-6.512,0.932-11.162,5.581-11.162,12.093l0,0c0,4.649,2.79,9.301,7.441,11.161
		c36.273,15.813,77.199,25.113,119.985,25.113c196.256,0,304.149-166.493,304.149-311.593l0,0c0-8.371,3.722-16.742,10.231-22.323
		c11.162-9.301,21.394-19.532,30.694-31.624c3.721-4.65-0.931-11.161-6.512-9.301c-11.16,3.72-22.322,6.511-34.414,8.371
		c-1.859,0-2.79-1.86-0.931-3.722c13.952-10.23,26.044-24.184,33.484-39.994c2.79-5.581-2.79-11.162-8.371-8.372
		c-10.231,5.581-21.393,9.302-32.555,13.021c-11.161,3.722-24.184,0.931-33.484-6.511c-17.672-13.952-40.926-22.323-65.108-22.323
		c-49.297,0-91.151,34.414-103.243,81.852c-1.86,8.371,4.649,15.813,13.021,15.813c14.882-0.93,29.766-2.79,40.926-4.649
		c9.303-1.86,18.604,2.789,22.323,11.16c4.65,11.162-1.86,22.323-12.092,25.113c-42.786,12.092-90.223,3.721-90.223,3.721l0,0
		c-72.55-10.23-136.729-45.575-183.234-96.732c-6.511-7.44-18.603-4.65-21.393,3.721c-3.722,11.161-5.581,23.253-5.581,36.275
		C182.833,194.396,201.435,227.881,229.339,247.414z"/>
</g>
</svg>
