<?xml version="1.0" encoding="utf-8"?>
<!-- Generator: Adobe Illustrator 15.0.0, SVG Export Plug-In . SVG Version: 6.00 Build 0)  -->
<!DOCTYPE svg PUBLIC "-//W3C//DTD SVG 1.1//EN" "http://www.w3.org/Graphics/SVG/1.1/DTD/svg11.dtd">
<svg version="1.1" id="Calque_1" xmlns="http://www.w3.org/2000/svg" xmlns:xlink="http://www.w3.org/1999/xlink" x="0px" y="0px"
	 width="841.891px" height="595.281px" viewBox="0 0 841.891 595.281" enable-background="new 0 0 841.891 595.281"
	 xml:space="preserve">
<g id="GUIDES_64">
</g>
<g id="Layer_3">
</g>
<g id="Layer_2">
	<path fill="#231F20" d="M306.54,346.937l-3.722-119.058c0-2.79-2.791-4.649-4.649-4.649c-2.791,0-4.651,1.859-4.651,4.649
		l-3.72,119.058l3.72,56.737c0,2.79,1.86,4.649,4.651,4.649c2.79,0,4.649-1.859,4.649-4.649l0,0L306.54,346.937z"/>
	<path fill="#231F20" d="M352.116,346.937l-3.722-119.986c0-3.721-2.791-5.581-5.581-5.581c-3.721,0-5.581,2.79-5.581,5.581
		l-2.79,119.986l2.79,55.808c0,3.721,2.791,5.58,5.581,5.58s5.581-2.79,5.581-5.58l0,0L352.116,346.937z"/>
	<path fill="#231F20" d="M167.951,296.71c-0.932,0-1.86,0.932-1.86,1.86l-3.721,38.136c-0.931,7.44-0.931,13.952,0,21.394
		l3.721,37.205c0,0.93,0.93,1.859,1.86,1.859c0.93,0,1.859-0.93,1.859-1.859l4.65-35.345c0.93-8.371,0.93-15.813,0-24.185
		l-4.65-37.205C169.811,297.64,168.881,296.71,167.951,296.71z"/>
	<path fill="#231F20" d="M210.736,284.618c-1.858,0-2.79,0.931-2.79,2.791l-4.649,52.087c0,4.65,0,9.303,0,13.952l3.721,51.157
		c0,1.859,1.86,2.79,2.79,2.79c1.86,0,2.79-0.931,2.79-2.79l4.651-49.297c0.93-5.581,0.93-10.231,0-15.813l-4.651-51.157
		C213.527,286.478,211.667,284.618,210.736,284.618z"/>
	<path fill="#231F20" d="M261.893,350.658c0-1.859,0-4.65,0-6.512l-4.649-85.571c0-1.86-1.86-3.721-3.722-3.721
		c-1.86,0-3.721,1.859-3.721,3.721l-4.65,85.571c0,1.86,0,3.721,0,5.581l3.722,54.878c0,1.859,1.859,3.72,3.721,3.72
		c1.859,0,3.72-1.859,3.72-3.72l0,0L261.893,350.658z"/>
	<path fill="#231F20" d="M397.692,346.937l-2.791-137.659c0-3.721-2.79-6.511-6.511-6.511s-6.511,2.79-6.511,6.511l-2.79,137.659
		l2.79,54.877c0,3.721,2.79,6.511,6.511,6.511s6.511-2.79,6.511-6.511l0,0L397.692,346.937z"/>
	<path fill="#231F20" d="M679.52,327.404c-5.581-25.113-25.113-44.646-49.297-50.227c-4.65-0.932-8.371-1.86-13.021-1.86
		c-15.813-0.93-30.693-10.231-36.274-25.113c-16.742-45.576-60.458-77.2-110.686-77.2c-14.882,0-29.765,2.79-42.786,8.371
		c-4.649,1.86-6.511,3.721-6.511,8.371v212.999c0,3.721,3.721,7.44,7.441,8.371c0,0,185.095,0,186.023,0
		C656.266,409.257,688.821,371.12,679.52,327.404z"/>
</g>
</svg>
