<?xml version="1.0" encoding="utf-8"?>
<!-- Generator: Adobe Illustrator 15.0.0, SVG Export Plug-In . SVG Version: 6.00 Build 0)  -->
<!DOCTYPE svg PUBLIC "-//W3C//DTD SVG 1.1//EN" "http://www.w3.org/Graphics/SVG/1.1/DTD/svg11.dtd">
<svg version="1.1" id="Calque_1" xmlns="http://www.w3.org/2000/svg" xmlns:xlink="http://www.w3.org/1999/xlink" x="0px" y="0px"
	 width="841.891px" height="595.281px" viewBox="0 0 841.891 595.281" enable-background="new 0 0 841.891 595.281"
	 xml:space="preserve">
<g id="GUIDES_64">
</g>
<g id="Layer_3">
</g>
<g id="Layer_2">
	<path fill="#231F20" d="M315.841,520.871H526.98c65.108,0,118.126-53.946,118.126-119.985V194.396
		C644.176,128.357,591.157,74.41,526.05,74.41H315.841c-65.108,0-118.126,53.947-118.126,119.986v206.488
		C197.715,466.925,250.732,520.871,315.841,520.871z M551.162,148.82c14.883,0,26.975,12.092,26.975,27.903
		c0,15.813-12.092,27.903-26.975,27.903c-14.882,0-26.974-12.092-26.974-27.903S536.281,148.82,551.162,148.82z M420.945,186.025
		c60.458,0,108.824,50.227,108.824,111.615c0,61.388-48.366,111.615-108.824,111.615S312.12,359.029,312.12,297.64
		C312.12,236.251,360.487,186.025,420.945,186.025z"/>
</g>
</svg>
