<?xml version="1.0" encoding="utf-8"?>
<!-- Generator: Adobe Illustrator 15.0.0, SVG Export Plug-In . SVG Version: 6.00 Build 0)  -->
<!DOCTYPE svg PUBLIC "-//W3C//DTD SVG 1.1//EN" "http://www.w3.org/Graphics/SVG/1.1/DTD/svg11.dtd">
<svg version="1.1" id="Calque_1" xmlns="http://www.w3.org/2000/svg" xmlns:xlink="http://www.w3.org/1999/xlink" x="0px" y="0px"
	 width="1257.126px" height="595.281px" viewBox="-137.791 0 1257.126 595.281"
	 enable-background="new -137.791 0 1257.126 595.281" xml:space="preserve">
<g id="GUIDES_64" display="none">
</g>
<g id="Layer_3" display="none">
</g>
<g display="none">
	<g display="inline">
		<defs>
			<rect id="SVGID_1_" x="-30.532" y="-170.797" width="927.874" height="927.874"/>
		</defs>
		<clipPath id="SVGID_2_">
			<use xlink:href="#SVGID_1_"  overflow="visible"/>
		</clipPath>
	</g>
	<g display="inline">
		<defs>
			<rect id="SVGID_3_" x="-30.532" y="-170.797" width="927.874" height="927.874"/>
		</defs>
		<defs>
			<path id="SVGID_4_" d="M550.944,263.065c-33.255,0-50.248,26.173-50.248,65.602c0,37.272,18.374,65.249,50.248,65.249
				c36.043,0,49.557-32.985,49.557-65.249c-0.028-33.688-17.007-65.602-49.567-65.602 M462.582,165.21h39.5v94.626h0.701
				c10.739-17.918,33.261-29.033,53.363-29.033c56.475,0,83.858,44.462,83.858,98.597c0,49.809-24.252,96.768-77.279,96.768
				c-24.257,0-50.247-6.077-62.03-30.461h-0.687v25.463h-37.427V165.216V165.21"/>
		</defs>
		<clipPath id="SVGID_5_">
			<use xlink:href="#SVGID_3_"  overflow="visible"/>
		</clipPath>
		<clipPath id="SVGID_6_" clip-path="url(#SVGID_5_)">
			<use xlink:href="#SVGID_4_"  overflow="visible"/>
		</clipPath>
		<rect x="453.52" y="156.149" clip-path="url(#SVGID_6_)" width="195.547" height="279.081"/>
	</g>
	<g display="inline">
		<defs>
			<rect id="SVGID_7_" x="-30.532" y="-170.797" width="927.874" height="927.874"/>
		</defs>
		<defs>
			<path id="SVGID_8_" d="M785.687,297.848c-3.118-22.587-19.053-34.78-40.886-34.78c-20.454,0-49.21,11.118-49.21,67.4
				c0,30.829,13.163,63.457,47.477,63.457c22.865,0,38.8-15.794,42.619-42.318h39.501c-7.277,48.035-36.032,74.561-82.12,74.561
				c-56.141,0-86.979-41.215-86.979-95.699c0-55.918,29.453-99.654,88.363-99.654c41.582,0,76.939,21.506,80.736,67.037h-39.433
				L785.687,297.848"/>
		</defs>
		<clipPath id="SVGID_9_">
			<use xlink:href="#SVGID_7_"  overflow="visible"/>
		</clipPath>
		<clipPath id="SVGID_10_" clip-path="url(#SVGID_9_)">
			<use xlink:href="#SVGID_8_"  overflow="visible"/>
		</clipPath>
		<rect x="647.029" y="221.752" clip-path="url(#SVGID_10_)" width="187.221" height="213.478"/>
	</g>
	<g display="inline">
		<defs>
			<rect id="SVGID_11_" x="-30.532" y="-170.797" width="927.874" height="927.874"/>
		</defs>
		<defs>
			<polyline id="SVGID_12_" points="324.481,420.61 28.198,420.61 166.556,165.21 462.841,165.21 324.481,420.61 			"/>
		</defs>
		<clipPath id="SVGID_13_">
			<use xlink:href="#SVGID_11_"  overflow="visible"/>
		</clipPath>
		<clipPath id="SVGID_14_" clip-path="url(#SVGID_13_)">
			<use xlink:href="#SVGID_12_"  overflow="visible"/>
		</clipPath>
		<rect x="19.137" y="156.149" clip-path="url(#SVGID_14_)" width="452.764" height="273.523"/>
	</g>
</g>
<g>
	<path d="M103.916,65.59l52.375,204.265L204.478,65.59h59.185l-78.564,281.782h-50.804L75.11,129.489L17.496,347.372h-51.328
		l-78.04-281.782h59.185l47.662,204.265L47.35,65.59H103.916z"/>
	<path d="M488.872,65.59l52.376,204.265L589.434,65.59h59.185l-78.563,281.782H519.25l-59.185-217.883l-57.613,217.883h-51.328
		L273.084,65.59h59.185l47.662,204.265L432.307,65.59H488.872z"/>
	<path d="M873.829,65.59l52.376,204.265L974.391,65.59h59.185l-78.563,281.782h-50.805l-59.185-217.883l-57.613,217.883h-51.328
		L658.041,65.59h59.185l47.662,204.265L817.263,65.59H873.829z"/>
	<path d="M1035.668,281.902h65.47v65.47h-65.47V281.902z"/>
</g>
</svg>
