<?xml version="1.0" ?><svg style="enable-background:new 0 0 64 64;" version="1.1" viewBox="0 0 64 64" xml:space="preserve" xmlns="http://www.w3.org/2000/svg" xmlns:xlink="http://www.w3.org/1999/xlink"><style type="text/css">
	.st0{fill:#0072FF;}
</style><g id="GUIDES_64"/><g id="Layer_3"/><g id="Layer_2"><path class="st0" d="M19.7,37.3l-0.4-12.8c0-0.3-0.3-0.5-0.5-0.5c-0.3,0-0.5,0.2-0.5,0.5l-0.4,12.8l0.4,6.1c0,0.3,0.2,0.5,0.5,0.5   c0.3,0,0.5-0.2,0.5-0.5v0L19.7,37.3z"/><path class="st0" d="M24.6,37.3l-0.4-12.9c0-0.4-0.3-0.6-0.6-0.6c-0.4,0-0.6,0.3-0.6,0.6l-0.3,12.9l0.3,6c0,0.4,0.3,0.6,0.6,0.6   c0.3,0,0.6-0.3,0.6-0.6v0L24.6,37.3z"/><path class="st0" d="M4.8,31.9c-0.1,0-0.2,0.1-0.2,0.2l-0.4,4.1c-0.1,0.8-0.1,1.5,0,2.3l0.4,4c0,0.1,0.1,0.2,0.2,0.2   c0.1,0,0.2-0.1,0.2-0.2l0.5-3.8c0.1-0.9,0.1-1.7,0-2.6L5,32.1C5,32,4.9,31.9,4.8,31.9z"/><path class="st0" d="M9.4,30.6c-0.2,0-0.3,0.1-0.3,0.3l-0.5,5.6c0,0.5,0,1,0,1.5L9,43.5c0,0.2,0.2,0.3,0.3,0.3   c0.2,0,0.3-0.1,0.3-0.3l0.5-5.3c0.1-0.6,0.1-1.1,0-1.7l-0.5-5.5C9.7,30.8,9.5,30.6,9.4,30.6z"/><path class="st0" d="M14.9,37.7c0-0.2,0-0.5,0-0.7l-0.5-9.2c0-0.2-0.2-0.4-0.4-0.4c-0.2,0-0.4,0.2-0.4,0.4L13.1,37   c0,0.2,0,0.4,0,0.6l0.4,5.9c0,0.2,0.2,0.4,0.4,0.4c0.2,0,0.4-0.2,0.4-0.4v0L14.9,37.7z"/><path class="st0" d="M29.5,37.3l-0.3-14.8c0-0.4-0.3-0.7-0.7-0.7c-0.4,0-0.7,0.3-0.7,0.7l-0.3,14.8c0,0,0.3,5.9,0.3,5.9   c0,0.4,0.3,0.7,0.7,0.7c0.4,0,0.7-0.3,0.7-0.7v0L29.5,37.3z"/><path class="st0" d="M59.8,35.2c-0.6-2.7-2.7-4.8-5.3-5.4c-0.5-0.1-0.9-0.2-1.4-0.2c-1.7-0.1-3.3-1.1-3.9-2.7   c-1.8-4.9-6.5-8.3-11.9-8.3c-1.6,0-3.2,0.3-4.6,0.9c-0.5,0.2-0.7,0.4-0.7,0.9v22.9c0,0.4,0.4,0.8,0.8,0.9c0,0,19.9,0,20,0   C57.3,44,60.8,39.9,59.8,35.2z"/></g></svg>