<?xml version="1.0" encoding="utf-8"?>
<!-- Generator: Adobe Illustrator 15.0.0, SVG Export Plug-In . SVG Version: 6.00 Build 0)  -->
<!DOCTYPE svg PUBLIC "-//W3C//DTD SVG 1.1//EN" "http://www.w3.org/Graphics/SVG/1.1/DTD/svg11.dtd">
<svg version="1.1" id="Calque_1" xmlns="http://www.w3.org/2000/svg" xmlns:xlink="http://www.w3.org/1999/xlink" x="0px" y="0px"
	 width="822px" height="315.118px" viewBox="0 0 822 315.118" enable-background="new 0 0 822 315.118" xml:space="preserve">
<g>
	<path fill="#FFFFFF" d="M165.234,90.673c0.285-2.119,0.923-4.156,1.202-6.308c0.61-4.719,0.782-9.482,1.36-14.206
		c1.389-11.355,5.252-22.402,11.244-32.148c0.688-1.12,1.468-2.279,2.661-2.83c0.943-0.436,2.199-0.291,2.904,0.396l-0.491,5.046
		c-0.264,2.723,1.728,5.144,4.45,5.409l5.504,0.535l-1.018,10.471c-0.266,2.723,1.727,5.144,4.449,5.409
		c0.163,0.016,0.325,0.024,0.485,0.024c2.519,0,4.674-1.915,4.923-4.474l1.497-15.4c0.264-2.722-1.728-5.144-4.45-5.408
		l-5.504-0.535l1.502-15.44c0.141-1.45-0.363-2.812-1.272-3.811c-0.413-1.203-1.037-2.282-2.05-3.045
		c-0.804-0.606-1.779-0.944-2.762-1.156c-4.43-0.957-9.176,0.562-12.686,3.426c-3.687,3.009-5.243,6.854-7.239,10.99
		c-2.137,4.428-4.716,8.724-7.03,13.073c-0.721,1.357-1.683,2.881-3.212,3.024c-3.126,0.293-4.197-5.182-7.337-5.244
		c-1.518-0.029-2.698,1.29-3.508,2.575c-3.601,5.717-4.319,12.727-4.945,19.454l-1.395,14.98c-0.328,3.524-0.855,7.44-3.599,9.676
		c-2.438,1.988-5.89,2.015-9.03,1.809c-0.085-0.005-0.177-0.005-0.265-0.009l-14.11-1.373c-1.31-0.128-2.611,0.271-3.626,1.105
		c-1.014,0.834-1.654,2.038-1.782,3.346l-1.358,13.972c-0.264,2.722,1.728,5.143,4.449,5.408c0.164,0.016,0.325,0.024,0.486,0.024
		c2.519,0,4.673-1.915,4.922-4.474l0.879-9.043l2.215,0.215c0.226,0.28,0.418,0.593,0.566,0.937
		c0.595,1.383,0.536,2.947,0.466,4.452c-0.116,2.523-0.233,5.047-0.349,7.571c-0.161,3.477-0.321,6.954-0.518,10.43
		c-0.118,2.084-0.443,4.504-2.242,5.565c-0.99,0.584-2.204,0.597-3.354,0.592c-2.004-0.009-4.008-0.017-6.012-0.025
		c-2.452-0.01-5.065,0.025-7.117,1.372c-3.088,2.027-3.769,6.167-4.404,9.808c-1.778,10.196-5.391,20.069-10.615,29.004
		c-1.062-4.562-4.746-8.011-8.497-10.815c-3.751-2.803-7.857-5.363-10.474-9.247c-2.153-3.197-3.087-7.075-3.097-10.899
		c-0.002-0.985,0.015-2.012,0.178-2.986c0.124-0.741,0.07-1.485,0.213-2.226c0.144-0.749,0.466-1.465,0.919-2.082
		c0.041-0.035,0.081-0.071,0.122-0.105c1.145-0.947,2.567-1.538,4.041-1.721l-0.985,10.135c-0.265,2.723,1.728,5.144,4.45,5.409
		c0.163,0.016,0.324,0.023,0.485,0.023c2.519,0,4.674-1.915,4.923-4.474l1.546-15.897c0.13-1.338-0.29-2.671-1.162-3.693
		c-0.873-1.022-2.123-1.646-3.464-1.729c-5.418-0.332-11.918-0.864-14.155-1.221c-0.029-0.008-0.056-0.022-0.085-0.032
		c-0.924-0.285-1.942-0.48-2.614-1.176c-0.513-0.532-0.735-1.274-0.908-1.993c-2.4-9.963,1.526-18.327,3.073-28.027
		c0.972-6.096,0.609-12.76-2.922-17.821c-1.387-1.987-3.224-3.658-5.334-4.847c-4.918-2.773-8.392-7.599-11.222-12.536
		c-1.565-2.731-2.808-5.648-3.691-8.671c-0.156-0.534-0.276-1.665-0.405-2.942c2.096,0.785,4.393,1.434,6.927,1.9
		c0.303,0.056,0.604,0.082,0.902,0.082c2.343,0,4.426-1.67,4.864-4.057c0.495-2.69-1.285-5.271-3.975-5.766
		C29.661,25.1,29.557,10.92,29.607,9.277c0.111-2.719-1.994-5.021-4.715-5.148c-1.726-0.086-3.277,0.719-4.223,2.006
		c-0.703-0.043-1.258,1.082-1.494,1.794c-2.362,7.105-4.723,14.21-7.083,21.315c-1.041,3.133-2.083,6.266-3.124,9.399
		c-0.334,0.594-0.553,1.252-0.621,1.943l-0.013,0.129c-0.125,0.559-0.201,1.142-0.163,1.679L6.414,60.458
		c-0.265,2.722,1.728,5.143,4.45,5.408c0.164,0.016,0.325,0.023,0.485,0.023c2.519,0,4.674-1.914,4.923-4.474l1.453-14.943
		l3.269,0.319c0.199,0.02,0.398,0.022,0.597,0.017c0.359,0.099,0.715,0.211,1.053,0.369c1.201,0.562,2.114,1.592,2.896,2.664
		c4.55,6.232,5.597,14.859,2.671,22c-0.429,1.047-0.937,2.076-1.402,3.116c-0.005,0.004-0.011,0.007-0.016,0.011
		c-1.014,0.835-1.655,2.038-1.783,3.345l-1.931,19.872c-0.265,2.722,1.727,5.143,4.449,5.408c0.163,0.016,0.325,0.023,0.485,0.023
		c2.52,0,4.675-1.915,4.923-4.474l1.453-14.943l3.268,0.319c0.458,0.043,0.904,0.019,1.336-0.058
		c1.623,0.553,3.188,1.368,4.403,2.478c3.491,3.188,4.005,8.397,3.822,12.846c-0.225,5.467-1.555,10.815-2.901,16.093
		c-1.548,6.069-0.953,11.925,3.877,16.436c0.703,0.656,1.489,1.275,1.9,2.145c0.271,0.569,0.359,1.206,0.439,1.83
		c0.5,3.909,0.809,7.9,0.096,11.775c-0.79,4.288-2.792,8.245-4.843,12.091c-1.607,3.011-3.266,6.008-5.303,8.747
		c-1.863,2.506-4.18,4.849-7.014,6.058l-0.359-0.035c-1.309-0.127-2.611,0.271-3.625,1.104c-1.015,0.835-1.656,2.039-1.783,3.346
		l-2.028,20.865c-0.264,2.722,1.728,5.143,4.449,5.408c0.163,0.016,0.325,0.023,0.486,0.023c2.519,0,4.674-1.915,4.923-4.473
		l1.549-15.938l5.007,0.488c2.323,0.22,4.428-1.203,5.157-3.32c0.665-0.56,1.297-1.16,1.926-1.759
		c4.539-4.324,9.049-7.678,14.267-11.025c1.126-0.024,2.253,0.049,3.364,0.237c5.208,0.887,9.96,4.157,12.65,8.704
		c1.79,3.028,2.663,6.491,3.842,9.806c0.955,2.687,2.123,5.301,3.563,7.761c0.199,0.342,0.416,0.691,0.749,0.903
		c0.53,0.335,1.223,0.239,1.818,0.044c3.254-1.063,5.083-4.424,6.593-7.497c1.756-3.574,3.512-7.15,5.268-10.726
		c2.001-4.073,4.364-8.44,7.776-11.211l3.992,0.388l-1.151,11.837c-0.127,1.307,0.27,2.611,1.104,3.626
		c0.835,1.015,2.038,1.655,3.345,1.782l14.654,1.425c0.162,0.015,0.324,0.023,0.485,0.023c2.519,0,4.674-1.914,4.923-4.474
		c0.264-2.722-1.728-5.143-4.45-5.408l-9.725-0.945l1.151-11.836c0.127-1.309-0.271-2.611-1.104-3.627
		c-0.835-1.014-2.038-1.654-3.346-1.781l-7.739-0.753l0.705-7.237c0.006-0.063,0.005-0.125,0.009-0.186
		c3.177,2.172,6.551,4.977,10.324,4.285c0.522-0.096,1.058-0.274,1.417-0.667c0.475-0.517,0.541-1.277,0.583-1.977
		c0.274-4.598,0.548-9.198,0.822-13.796c0.174-2.915,0.432-6.052,2.311-8.288c1.879-2.236,6.007-2.725,7.469-0.197
		c0.449,0.777,0.575,1.688,0.733,2.583l-0.411,4.219c-0.264,2.723,1.728,5.144,4.451,5.409c0.162,0.016,0.324,0.024,0.484,0.024
		c2.519,0,4.674-1.915,4.923-4.474l3.53-36.306l8.981,0.873c2.034,0.193,3.903-0.87,4.827-2.558
		c0.542-0.674,0.952-1.454,1.283-2.256C164.52,95.24,164.928,92.952,165.234,90.673z M71.557,125.453l-0.004,0.046
		c-0.016-0.012-0.031-0.025-0.048-0.036C71.523,125.46,71.54,125.457,71.557,125.453z"/>
	<path fill="#FFFFFF" d="M216.074,212.925l2.206-22.689c0.265-2.723-1.728-5.144-4.449-5.408c-2.725-0.27-5.144,1.728-5.409,4.449
		c0,0-1.738,17.879-1.739,17.879c-3.971-0.313-5.171-0.008-5.359-4.17c-0.175-3.859-1.037-7.649-1.234-11.505
		c-0.203-3.957,0.299-7.913,0.799-11.843c0.574-4.509,1.147-9.02,1.721-13.528c0.472-3.707,0.972-7.508,2.731-10.805
		c2.339-4.384,6.667-6.878,9.594-10.753c2.861-3.789,5.116-8.047,6.441-12.615c1.195-4.121,1.901-8.916,0.988-13.184
		c-0.572-2.674-3.208-4.401-5.886-3.832c-2.674,0.574-4.382,3.178-3.81,5.852c0.068,0.359,1.012,5.823-2.592,12.968
		c0.463-1.803,0.514-3.713,0.263-5.551c-0.485-3.548-1.976-6.865-3.372-10.162c-1.396-3.296-2.731-6.708-2.874-10.285
		c-0.082-2.046,0.231-4.085,0.394-6.126c0.133-1.681,0.165-3.371,0.094-5.056c-0.142-3.364-0.774-6.894-2.944-9.468
		c-1.71-2.029-4.718-3.317-7.354-2.582c-2.935,0.818-4.24,3.917-4.995,6.594c-0.736,2.609-1.209,5.292-1.395,7.997
		c-0.164,2.372-0.092,4.759,0.183,7.123c-0.043,0.031-0.088,0.059-0.131,0.091l-9.339,7.19c-1.081,0.832-1.771,2.074-1.907,3.432
		l-1.521,15.242c-0.272,2.721,1.714,5.148,4.436,5.419c0.168,0.018,0.333,0.025,0.499,0.025c2.513,0,4.667-1.907,4.921-4.461
		c0.413-4.135,0.563-8.39,1.215-12.467c0.022-0.135,0.048-0.28,0.146-0.375c0.155-0.15,0.407-0.109,0.618-0.056
		c0.692,0.173,1.45,0.391,1.834,0.991c0.264,0.41,0.297,0.922,0.323,1.408c0.103,1.919,0.203,3.844,0.124,5.766
		c-0.083,1.982-0.433,3.569-1.164,5.386c-1.454,3.617-2.516,7.39-3.161,11.234c-0.126,0.756-0.239,1.523-0.52,2.236
		c-0.309,0.787-0.812,1.479-1.203,2.228c-0.529,1.01-0.569,2.138-1.037,3.143c-0.432,0.927-0.962,1.827-1.398,2.761
		c-0.571,1.225-1.043,2.405-1.469,3.67c-0.399,1.186-1.39,2.316-2.185,3.266c-2.076,2.479-4.799,4.389-6.668,7.027
		c-0.483,0.682-0.913,1.43-1.047,2.254c-0.007,0.042-0.002,0.085-0.007,0.127c-0.234,0.504-0.402,1.041-0.458,1.605l-1.901,19.558
		c-0.264,2.722,1.728,5.144,4.45,5.407c0.163,0.017,0.324,0.024,0.485,0.024c2.519,0,4.674-1.915,4.923-4.474
		c0.227-2.334,0.211-4.634,0.336-6.955c0.077-1.437-0.069-3.581,1.677-3.434c1.221,0.103,2.107,1.855,2.158,2.907
		c0.084,1.743-0.771,3.393-0.967,5.127c-0.258,2.283,0.637,4.536,0.756,6.83c0.125,2.399-0.635,4.835-2.101,6.736
		c-0.614,0.797-1.35,1.509-1.83,2.394c-0.552,1.019-0.725,2.195-1.133,3.279c-1.289,3.424-4.688,5.512-7.01,8.339
		c-5.957,7.25-3.738,16.911-4.571,25.483c-0.542,5.576-1.084,11.152-1.626,16.729c-0.265,2.723,1.728,5.144,4.45,5.409
		c2.717,0.258,5.143-1.729,5.408-4.45l1.55-15.937l7.34,0.714l-1.55,15.937c-0.265,2.722,1.729,5.144,4.45,5.407
		c0.163,0.017,0.325,0.024,0.485,0.024c2.52,0,4.675-1.915,4.923-4.474l2.028-20.865c0.101-1.042-0.135-2.08-0.657-2.973
		c1.072-5.976,3.01-11.796,5.753-17.212c0.566-1.116,1.176-2.231,2.038-3.141c1.419-1.5,3.428-2.332,5.461-2.687
		c0.268-0.048,0.538-0.069,0.807-0.102c1.913,0.153,3.89,0.294,5.714,0.415c0.111,0.006,0.221,0.01,0.33,0.01
		C213.678,217.396,215.826,215.477,216.074,212.925z"/>
	<path fill="#FFFFFF" d="M336.333,273.147c-3.323-3.969-1.851-10.039-3.679-14.882c-1.092-2.893-3.303-5.189-5.344-7.512
		c-4.876-5.548-9.066-11.702-12.439-18.274c-1.005-1.958-1.905-4.452-0.597-6.223c1.144-1.55,3.534-1.669,5.247-0.791
		c0.784,0.401,1.456,0.96,2.065,1.594l4.716,12.339c0.754,1.972,2.633,3.185,4.627,3.185c0.587,0,1.186-0.105,1.767-0.328
		c2.555-0.977,3.834-3.839,2.858-6.394l-6.297-16.473c-0.343-0.897-0.94-1.677-1.718-2.24l-6.054-4.391
		c-0.894-1.174-2.21-2.036-3.176-3.179c-0.898-1.063-1.473-2.355-2.238-3.518c-2.233-3.387-5.985-5.489-9.824-6.801
		c-3.838-1.313-7.874-1.96-11.745-3.173c-2.553-0.801-5.185-1.973-6.625-4.228c-0.788-1.234-1.146-2.687-1.491-4.109
		c-0.293-1.207-0.588-2.439-0.483-3.677c0.106-1.236,0.684-2.502,1.763-3.115c0.059-0.034,0.122-0.057,0.183-0.085l2.974,0.289
		l-0.68,6.993c-0.265,2.723,1.727,5.144,4.45,5.408l10.805,1.051c0.163,0.016,0.325,0.023,0.485,0.023
		c2.519,0,4.673-1.915,4.923-4.474c0.265-2.722-1.728-5.144-4.45-5.408l-5.876-0.571l0.68-6.993c0.265-2.722-1.728-5.144-4.45-5.408
		l-14.53-1.413c-0.203-0.02-0.401-0.021-0.599-0.018c-5.667-1.533-9.625-7.77-8.585-13.55c0.164-0.909,0.459-1.843,1.126-2.482
		c1.029-0.987,2.76-1.105,3.563-2.283c1.097-1.608-0.341-3.721-1.806-5.002c-4.016-3.519-8.935-6.113-12.104-10.409
		s-3.71-11.328,0.733-14.288c1.339-0.892,2.939-1.286,4.502-1.665c4.36-1.057,8.72-2.114,13.081-3.171
		c3.276-0.794,6.645-1.594,9.987-1.148c0.668,0.088,1.36,0.242,1.87,0.682c0.647,0.557,0.853,1.421,1.006,2.282l-0.291,2.997
		l-7.739-0.752c-2.722-0.257-5.144,1.728-5.408,4.45l-1.015,10.432c-0.265,2.722,1.727,5.143,4.449,5.408
		c0.163,0.016,0.325,0.023,0.486,0.023c2.519,0,4.673-1.914,4.923-4.473l0.534-5.503l7.739,0.752
		c2.722,0.264,5.144-1.729,5.409-4.45l0.125-1.282c2.921-1.988,6.985,0.123,10.25,1.755c4.303,2.152,9.07,3.373,13.878,3.552
		c0.904,0.034,1.887,0.007,2.6-0.55c0.781-0.609,1.015-1.671,1.197-2.644c0.475-2.529,0.95-5.058,1.425-7.587
		c0.275-1.468,0.563-2.972,1.332-4.252c1.128-1.882,3.127-3.032,4.771-4.486c1.911-1.691,3.39-3.865,4.258-6.264
		c0.177-0.488,0.328-1.03,0.144-1.516c-0.505-1.331-2.491-0.747-3.719-0.027c-6.733,3.95-15.077,5.053-22.604,2.987
		c-5.296-1.453-10.57-4.422-15.938-3.26c1.639-1.564,3.252-4.396,1.434-5.748c-0.521-0.387-1.195-0.489-1.842-0.538
		c-3.807-0.282-7.542,0.918-11.243,1.855c-9.173,2.324-18.741,3.08-28.164,2.224c-4.327-0.393-8.969-1.301-11.901-4.506
		c-2.968-3.245-3.517-8.152-6.43-11.446c-1.176-1.33-3.044-2.384-4.685-1.707c-1.135,0.469-1.817,1.63-2.275,2.77
		c-1.817,4.518-1.336,9.581-0.988,14.438c0.797,11.135,0.636,22.789-4.278,32.812c-1.247,2.543-2.793,4.967-3.593,7.684
		c-1.341,4.529,0.118,8.972,4.833,10.217c4.23,1.117,9.218,4.009,11.75,7.675c0.805,1.166,1.393,2.477,2.272,3.587
		c0.785,0.989,1.777,1.791,2.73,2.62c4.268,3.713,7.888,8.164,10.679,13.083c1.35,2.378,2.828,5.041,3.544,7.695
		c0.086,0.322,0.147,0.653,0.193,0.989l-0.525,5.401l-4.013-0.391c-2.722-0.267-5.143,1.728-5.408,4.45l-1.5,15.431
		c-0.265,2.723,1.727,5.145,4.449,5.409c0.163,0.015,0.324,0.023,0.485,0.023c2.52,0,4.675-1.914,4.923-4.474l1.021-10.503
		l4.014,0.391c2.717,0.268,5.142-1.728,5.408-4.45l0.086-0.892c0.763,0.498,1.459,1.062,2.007,1.755
		c1.518,1.927,2.71,4.59,4.906,5.845c0.913,0.522,2,0.768,2.765,1.49c0.705,0.666,1.022,1.632,1.361,2.54
		c1.598,4.28,4.227,8.16,5.415,12.571c0.931,3.458,0.684,7.549-1.302,10.366l-2.513,1.819c-1.149,0.832-1.886,2.119-2.024,3.532
		l-0.87,8.941c-0.264,2.722,1.728,5.144,4.449,5.408c0.164,0.016,0.325,0.023,0.486,0.023c2.519,0,4.675-1.914,4.923-4.473
		l0.653-6.721l4.68-3.39c0.036,0.037,0.068,0.075,0.105,0.111c1.504,1.476,3.604,2.185,5.231,3.523
		c3.36,2.766,4.083,7.687,3.452,11.993c-0.389,2.654-1.541,5.616-4.098,6.429c-1.234,0.392-2.571,0.193-3.845-0.038
		c-10.732-1.952-21.005-5.986-30.688-11.01c-0.656-0.341-1.362-0.695-2.095-0.608c-1.515,0.18-2.17,2.055-2.102,3.579
		c0.07,1.522,0.505,3.141-0.158,4.515c-0.143,0.296-0.352,0.584-0.657,0.708c-0.359,0.144-0.765,0.032-1.135-0.081
		c-4.28-1.305-8.559-2.618-12.894-3.728c-7.509-1.922-15.299-3.276-23.072-2.607c-0.886,0.078-3.167,0.055-4.572,0.44
		c-0.873,0.134-1.701,0.494-2.395,1.064c-1.015,0.835-1.655,2.038-1.783,3.346l-3.713,38.19c-0.265,2.723,1.727,5.144,4.449,5.408
		c0.164,0.017,0.325,0.023,0.485,0.023c2.52,0,4.674-1.913,4.923-4.474l1.845-18.97c2.074-3.149,6.167-5.065,10.072-5.117
		c5.119-0.067,9.932,2.258,14.48,4.606c4.549,2.35,9.243,4.827,14.354,5.104c2.652,0.143,5.333-0.338,7.778-1.374
		c2.557-1.082,4.482-3.024,7.192-3.902c2.943-0.952,6.131-0.721,9.194-0.289c1.223,0.173,2.464,0.383,3.563,0.947
		c0.968,0.496,1.819,1.315,2.17,2.329l-0.084,0.874l-7.366-0.717c-1.31-0.129-2.611,0.271-3.626,1.104
		c-1.014,0.835-1.655,2.038-1.782,3.345l-1.413,14.531c-0.264,2.723,1.728,5.144,4.45,5.408c0.163,0.015,0.324,0.023,0.485,0.023
		c2.519,0,4.675-1.915,4.923-4.474l0.934-9.602l7.366,0.717c1.308,0.126,2.611-0.271,3.625-1.104
		c1.015-0.835,1.656-2.038,1.783-3.346l0.793-8.161c0.473-0.603,0.958-0.797,1.971-0.979c3.055-0.549,6.227,0.167,9.228,0.721
		c7.047,1.3,14.204,2.009,21.369,2.119c0.538,0.01,1.104,0.007,1.572-0.257c0.986-0.557,1.051-2.021,0.525-3.023
		C337.992,274.733,337.061,274.015,336.333,273.147z"/>
	<path fill="#FFFFFF" d="M371.291,212.63c-0.115-0.406-0.208-0.818-0.347-1.217c-0.135-0.381-0.321-0.743-0.445-1.129
		c-0.119-0.371-0.177-0.759-0.231-1.146c-0.243-1.722-0.421-3.46-0.319-5.196c0.088-1.502,0.394-3.01,1.03-4.381
		c0.492-1.061,1.085-2.017,1.467-3.15c1.503-4.463,1.41-10.035-2.146-13.532c-2.486-2.444-5.649-3.457-6.479-7.188
		c-0.406-1.824-0.279-3.723-0.083-5.581c0.548-5.188,1.647-10.36,3.816-15.104c0.437-0.954,0.935-1.915,1.73-2.599
		c1.715-1.474,3.609-0.769,4.154,1.336c0.085,0.33,0.137,0.665,0.177,1.003l-0.639,6.569l-5.08,9.634
		c-1.275,2.42-0.348,5.414,2.071,6.689c0.736,0.39,1.526,0.574,2.305,0.574c1.779,0,3.498-0.962,4.385-2.645l5.534-10.494
		c0.3-0.57,0.486-1.19,0.548-1.831l1.624-16.7c0.265-2.722-1.728-5.143-4.45-5.408c-0.078-0.007-0.153-0.007-0.23-0.01
		c-0.139-0.046-0.282-0.08-0.425-0.108c-1.811-0.349-3.664-0.475-5.447-0.94s-3.547-1.326-4.629-2.819
		c-1.508-2.079-1.419-4.697-1.322-7.119c0.115-2.86,0.586-5.723,0.269-8.587c-0.42-3.771-2.924-7.821-6.714-8
		c-4.371-0.205-7.201,4.648-7.976,8.955c-0.738,4.1-0.601,8.388-2.024,12.302c-1.119,3.08-3.661,5.946-6.697,6.724l-1.189-0.116
		c-1.31-0.128-2.612,0.271-3.626,1.104c-1.014,0.834-1.655,2.038-1.783,3.345l-1.545,15.897c-0.265,2.723,1.727,5.144,4.449,5.409
		c0.163,0.015,0.325,0.023,0.486,0.023c2.519,0,4.673-1.915,4.923-4.474l1.066-10.969l1.2,0.116
		c0.134,0.089,0.268,0.191,0.397,0.321c0.706,0.705,1.03,1.722,1.089,2.717c0.059,0.997-0.119,1.99-0.29,2.974
		c-0.758,4.404-1.333,8.84-1.723,13.292c-0.105,1.193-0.196,2.391-0.167,3.589c0.037,1.467,0.254,2.924,0.499,4.37
		c0.57,3.373,1.294,6.74,2.493,9.953c1.068,2.859,3.387,5.691,2.811,8.925c-0.451,2.534-2.586,4.206-4.785,5.256
		c-2.732,1.305-5.208,1.388-8.186,1.335c-1.479-0.027-3.097,0.212-4.102,1.297c-0.251,0.271-0.441,0.592-0.58,0.934
		c-0.908,1.239-1.2,2.834-0.763,4.318l3.68,12.502l-0.752,7.738c-0.265,2.722,1.728,5.144,4.449,5.408
		c0.163,0.016,0.325,0.023,0.485,0.023c2.52,0,4.674-1.914,4.923-4.474l0.846-8.693c0.061-0.632,0-1.269-0.179-1.878l-1.739-5.908
		c0.346,0.257,0.674,0.537,0.959,0.882c0.996,1.201,1.317,2.816,1.461,4.371c0.387,4.148-0.233,8.317-0.851,12.438
		c-0.21,1.4-0.421,2.802-0.631,4.202c-0.802,5.339-1.608,10.742-1.247,16.155c0.167,2.503,0.558,4.842,1.753,7.073
		c1.188,2.215,2.812,4.165,4.038,6.359c1.109,1.985,1.319,4.518,0.241,6.563c-0.046,0.087-0.114,0.179-0.189,0.274l-2.346,1.098
		c-1.585,0.741-2.662,2.265-2.831,4.006l-1.183,12.153c-0.264,2.722,1.728,5.144,4.45,5.408c0.163,0.016,0.325,0.023,0.485,0.023
		c2.52,0,4.675-1.914,4.923-4.473l0.909-9.343l6.21-2.905c0.021-0.008,0.042-0.015,0.064-0.023c1.26-0.469,2.587-0.984,3.414-2.046
		c0.906-1.161,1.026-2.732,1.095-4.203c0.195-4.214,0.243-8.535-1.123-12.526c-0.689-2.014-1.724-3.895-2.421-5.906
		c-1.514-4.367-1.367-9.11-1.202-13.729c0.128-3.599,0.257-7.197,0.386-10.796c0.063-1.749-0.072-3.638,0.196-5.365
		c0.158-1.023,0.333-2.605,1.154-3.304c0.292-0.248,0.652-0.387,1.031-0.441l2.436,3.17l-0.825,8.487
		c-0.264,2.722,1.728,5.143,4.449,5.408c0.163,0.016,0.325,0.022,0.486,0.022c2.519,0,4.674-1.913,4.922-4.473l1.015-10.433
		c0.122-1.251-0.237-2.5-1.002-3.497L371.291,212.63z"/>
	<path fill="#FFFFFF" d="M536.58,198.435l2.045-21.03c0.081-0.832-0.05-1.67-0.38-2.438L529.652,155
		c-1.081-2.512-3.995-3.674-6.506-2.591c-2.512,1.082-3.672,3.994-2.592,6.507l8.09,18.796l-0.323,3.329
		c-0.47-0.041-0.932-0.12-1.358-0.335c-0.896-0.45-1.415-1.391-1.881-2.276c-2.813-5.354-5.627-10.71-8.441-16.063
		c-0.98-1.868-1.982-3.762-3.446-5.279c-3.588-3.714-7.459-8.715-13.101-8.803c-0.553-0.008-1.129,0.018-1.663-0.088
		c-0.132-0.18-0.255-0.365-0.349-0.57c-1.191-2.576,1.577-5.364,1.421-8.199c-0.222-4.059-5.553-5.248-9.607-5.535
		c-7.002-0.495-13.951-1.724-20.697-3.659c-1.793-0.515-3.649-1.125-4.948-2.463c-1.25-1.285-1.76-3.438-0.758-4.893l1.959-1.35
		l10.125,0.984c2.724,0.268,5.143-1.728,5.407-4.45c0.265-2.722-1.726-5.143-4.45-5.408l-11.924-1.159
		c-0.304-0.03-0.606-0.027-0.907,0c-0.411-0.085-0.831-0.139-1.24-0.166c-5.111-0.335-10.112,1.596-14.61,4.048
		c-4.498,2.453-8.699,5.459-13.365,7.575c-1.93,0.875-3.928,1.591-5.948,2.224c-0.953,0.299-1.972,0.498-2.907,0.832
		c-0.747,0.266-1.415,0.646-2.207,0.84c-2.254,0.554-4.539,0.981-6.84,1.282c-0.786,0.103-1.573,0.19-2.36,0.279
		c-0.465-0.14-0.946-0.219-1.435-0.219h-0.008l-10.901,0.015c-2.735,0.004-4.949,2.224-4.945,4.958
		c0.004,2.733,2.22,4.946,4.951,4.946h0.007l8.798-0.013c1.145,1.099,1.769,2.61,1.749,4.245c-0.025,2.145-0.999,4.166-2.136,5.985
		c-2.837,4.538-6.842,8.34-11.521,10.938c-2.036,1.13-4.192,2.032-6.204,3.207c-0.87,0.508-1.684,1.104-2.562,1.59
		c-0.866,0.481-1.936,0.69-2.712,1.32c-0.344,0.278-0.6,0.644-0.784,1.048c-0.299,0.283-0.566,0.601-0.788,0.951l-9.4,14.882
		c-1.46,2.313-0.771,5.371,1.542,6.832c0.822,0.518,1.736,0.767,2.641,0.767c1.643,0,3.249-0.818,4.191-2.31l8.522-13.493
		c0.463,0.067,0.905,0.249,1.304,0.597c2.057,1.781,0.142,5.065-1.721,7.05c-5.563,5.929-10.822,12.791-11.819,20.86
		c-1.107,8.955,3.222,17.756,3.166,26.776c-0.024,3.994-0.91,7.942-0.991,11.936c-0.082,3.993,0.795,8.272,3.667,11.048
		c2.849,2.757,7.566,4.079,8.628,7.838l-0.46,4.747l-3.88,0.012c-2.544,0.006-4.669,1.939-4.915,4.472l-1.063,10.929
		c-0.264,2.724,1.728,5.145,4.45,5.41c0.163,0.016,0.324,0.021,0.485,0.021c2.52,0,4.674-1.913,4.923-4.472l0.628-6.47l3.879-0.011
		c0.367-0.001,0.72-0.053,1.065-0.13c2.418,0.996,4.708,2.564,6.846,4.092c3.046,2.177,6.091,4.354,9.137,6.531
		c7.886,5.635,17.105,11.528,26.431,10.576c1.434-0.03,2.897-0.329,4.231-0.797c2.81-0.982,5.425-2.546,8.261-3.384
		c0.06,0.298,0.139,0.595,0.255,0.881c0.693,1.705,2.275,2.885,4.108,3.063l5.338,0.52l-0.754,7.759
		c-0.265,2.722,1.728,5.144,4.45,5.409c0.163,0.015,0.324,0.022,0.484,0.022c2.519,0,4.674-1.914,4.924-4.474l1.233-12.688
		c0.263-2.723-1.728-5.144-4.451-5.407l-0.875-0.086l1.658-1.964c0.312-0.367,0.536-0.773,0.722-1.192
		c3.313-1.331,6.796-2.363,10.133-3.624c5.335-2.017,10.134-5.015,15.521-6.802c7.432-2.463,14.422-6.063,21.356-9.704l9.011-3.653
		c1.09-0.441,1.986-1.256,2.53-2.299l4.492-8.619c1.264-2.425,0.323-5.415-2.103-6.68c-2.426-1.266-5.416-0.323-6.681,2.102
		l-3.649,7.003l-4.278,1.734c-0.822-0.948-0.344-2.442,0.202-3.438c4.817-8.807,11.425-16.751,14.521-26.3
		c1.696-5.233,2.025-10.72,2.738-16.144c0.206-1.559,0.41-3.121,0.433-4.692c0.016-1.311-0.095-2.617-0.232-3.921
		C536.571,198.475,536.578,198.455,536.58,198.435z M459.568,151.651c6.275-3.524,15.804-3.079,18.953,3.393
		c0.113,0.233,0.217,0.456,0.314,0.674l-0.266,2.735c-0.128,1.308,0.27,2.611,1.104,3.625c0.835,1.015,2.039,1.655,3.346,1.783
		l4.841,0.471l-0.396,4.076c-0.264,2.723,1.729,5.145,4.449,5.408c0.164,0.016,0.326,0.023,0.486,0.023
		c2.52,0,4.675-1.914,4.923-4.474l0.306-3.145c0.878,0.644,1.724,1.277,2.521,1.858c3.935,2.882,7.502,6.268,10.578,10.055
		c0.947,1.167,1.849,2.372,2.727,3.593l-20.229,3.738c-2.791,0.516-5.68,1.049-8.525,1.19c-1.439,0.072-2.93,0.045-4.368,0.019
		c-2.246-0.039-4.568-0.081-6.875,0.233c-0.788,0.108-1.567,0.257-2.336,0.425c-2.562-2.896-5.049-6.244-6.845-10.043
		c-0.357-0.754-0.688-1.522-1.017-2.291c-0.546-1.275-1.112-2.595-1.807-3.858c-0.982-1.783-2.198-3.41-3.374-4.983
		c-0.954-1.276-1.938-2.595-2.758-3.953c-0.844-1.396-1.989-3.726-2.118-6.196C455.304,154.521,457.327,152.909,459.568,151.651z
		 M497.655,194.247c-1.8,1.522-3.565,3.087-5.283,4.701l-0.186,0.175c-1.276,1.202-2.482,2.336-3.929,2.96
		c-0.646,0.278-1.357,0.46-2.106,0.648c-0.279-0.374-0.558-0.75-0.849-1.11c-2.119-2.631-4.618-4.933-7.031-7.158
		c-0.634-0.583-1.266-1.165-1.891-1.754c-1.06-0.996-2.188-2.093-3.329-3.278c0.244-0.042,0.488-0.085,0.734-0.118
		c2.122-0.29,4.25-0.252,6.504-0.213c1.479,0.028,3.01,0.054,4.531-0.021c3.008-0.15,5.976-0.698,8.846-1.229l16.563-3.061
		c-1.345,0.895-2.67,1.818-3.983,2.762l-3.642-0.355c-2.724-0.268-5.145,1.729-5.408,4.451
		C497.106,192.573,497.282,193.464,497.655,194.247z M441.565,197.309c0.383-1.644,0.79-3.318,1.233-4.97l4.421-0.025
		c6.568-0.039,13.358-0.079,19.954-1.548c0.724-0.16,1.444-0.339,2.164-0.517c0.317-0.078,0.63-0.155,0.94-0.23
		c1.521,1.644,3.038,3.139,4.44,4.458c0.631,0.594,1.271,1.182,1.908,1.771c2.35,2.165,4.78,4.405,6.786,6.896
		c0.091,0.111,0.173,0.229,0.262,0.343c-2.092,0.862-3.699,2.38-5.256,3.85c-0.393,0.371-0.785,0.743-1.186,1.102
		c-3.251,2.919-7.201,5.135-11.022,7.275c-1.402,0.787-2.853,1.599-4.258,2.439c-0.232,0.14-0.46,0.289-0.692,0.431
		c-2.417-0.868-4.902-1.515-7.337-2.146c-2.929-0.759-5.958-1.544-8.748-2.699c-2.588-1.073-5.045-2.501-7.424-4.054
		C439.586,205.744,440.596,201.475,441.565,197.309z M435.72,208.322c-1.063-0.734-2.116-1.481-3.156-2.223
		c-3.952-2.813-8.038-5.72-12.604-7.696c-1.838-0.794-3.764-1.443-5.625-2.072c-2.429-0.818-4.774-1.611-6.914-2.689
		c9.024-1.147,18.247-1.202,27.203-1.255l5.66-0.033c-0.384,1.475-0.744,2.955-1.081,4.406
		C438.253,200.842,437.335,204.746,435.72,208.322z M467.396,217.829c3.937-2.207,8.007-4.487,11.459-7.588
		c0.414-0.371,0.823-0.757,1.23-1.144c1.472-1.391,2.863-2.704,4.558-3.391c0.173-0.069,0.355-0.121,0.535-0.18
		c0.827,1.191,1.622,2.419,2.397,3.627c2.683,4.183,5.457,8.508,9.789,11.26l0.437,0.271c0.594,0.366,1.153,0.711,1.528,1.148
		c0.422,0.495,0.682,1.192,0.977,1.983c2.229,5.963,4.98,11.723,8.198,17.213c-6.384-2.385-12.837-4.966-18.662-8.539
		c-0.635-0.388-1.263-0.789-1.89-1.19c-2.061-1.314-4.19-2.675-6.548-3.612c-1.257-0.502-2.55-0.87-3.802-1.228
		c-1.398-0.398-2.72-0.774-3.982-1.317c-1.609-0.692-3.086-1.634-4.648-2.634c-1.054-0.672-2.141-1.367-3.277-1.98
		c-0.532-0.287-1.076-0.552-1.624-0.804C465.175,219.081,466.297,218.444,467.396,217.829z M452.121,161.724
		c0.006-0.12,0.015-0.239,0.022-0.36c0.366,0.81,0.755,1.52,1.102,2.094c0.881,1.462,1.903,2.828,2.893,4.151
		c1.178,1.577,2.291,3.065,3.19,4.702c0.639,1.158,1.155,2.366,1.703,3.646c0.342,0.795,0.683,1.591,1.052,2.372
		c1.713,3.616,3.99,6.822,6.376,9.637c-0.603,0.149-1.205,0.299-1.812,0.434c-6.343,1.412-13.002,1.451-19.443,1.488l-3.71,0.021
		c1.038-3.326,2.365-6.617,3.666-9.809c0.8-1.962,1.627-3.991,2.381-6.02c0.798-2.15,1.673-4.71,2.107-7.391
		C451.914,165.045,452.02,163.356,452.121,161.724z M407.086,188.403c1.007-2.247,2.414-4.059,3.798-6.06
		c5.863-8.474,12.869-16.977,13.77-27.24c6.609,6.04,17.1,7.362,25.002,3.152c0.11-0.059,0.215-0.125,0.323-0.185
		c-0.131,1.167-0.209,2.341-0.28,3.503c-0.097,1.574-0.197,3.2-0.445,4.728c-0.4,2.475-1.229,4.894-1.986,6.934
		c-0.74,1.992-1.56,4.004-2.354,5.948c-1.416,3.472-2.875,7.06-3.971,10.739l-6.335,0.038c-9.387,0.056-19.063,0.126-28.575,1.431
		C406.261,190.364,406.654,189.368,407.086,188.403z M418.16,244.354c-2.774-0.588-5.302-1.122-7.97-2.072
		c-6.042-3.215-8.637-10.355-10.728-16.872c-1.556-4.846-3.125-10.021-1.818-14.939c0.51-1.922,1.627-3.698,3.098-5.063l0.045,0.006
		l-0.502,5.171c-0.266,2.723,1.727,5.144,4.449,5.408l9.273,0.901c0.163,0.016,0.324,0.023,0.485,0.023
		c2.519,0,4.674-1.913,4.923-4.473c0.266-2.723-1.727-5.144-4.45-5.408l-4.344-0.423l0.503-5.172
		c0.167-1.712-0.561-3.304-1.799-4.316c1.402,0.548,2.827,1.032,4.236,1.507c1.814,0.612,3.691,1.244,5.438,2
		c4.328,1.873,8.31,4.706,12.159,7.446c1.135,0.808,2.284,1.621,3.45,2.422c-0.177,0.313-0.346,0.631-0.537,0.938
		c-0.362,0.581-0.752,1.145-1.14,1.71c-0.782,1.136-1.589,2.31-2.207,3.62c-0.991,2.1-1.409,4.356-1.813,6.538l-0.162,0.872
		c-1.42,7.473-3.791,14.677-7.055,21.503C420.708,245.087,419.599,244.659,418.16,244.354z M431.133,224.63l0.164-0.885
		c0.394-2.123,0.765-4.129,1.621-5.943c0.534-1.133,1.252-2.176,2.012-3.281c0.407-0.593,0.815-1.188,1.196-1.797
		c0.18-0.287,0.336-0.585,0.503-0.877c2.419,1.569,4.934,3.017,7.617,4.129c2.947,1.222,6.06,2.028,9.069,2.81
		c1.816,0.47,3.583,0.933,5.299,1.468c-2.37,1.545-4.688,3.162-6.948,4.747l-6.561,4.6c-1.668,1.171-3.337,2.342-4.983,3.543
		c-5.635,4.107-11.04,8.591-16.137,13.377C427.288,239.565,429.688,232.232,431.133,224.63z M508.578,245.379
		c-1.726,2.721-4.004,5.124-5.237,8.099c-1.173,2.827-1.358,6.074-3.057,8.622c-1.883,2.823-5.594,4.29-8.897,3.519
		c-1.271-0.298-2.513-1.198-3.199-2.28l0.235-2.435l2.688,0.262c2.72,0.261,5.145-1.728,5.408-4.449l1.128-11.592
		c0.264-2.723-1.729-5.145-4.45-5.408c-2.722-0.262-5.143,1.728-5.408,4.449l-0.648,6.664l-2.688-0.262
		c-1.306-0.129-2.611,0.27-3.626,1.104s-1.656,2.037-1.783,3.345l-0.15,1.558c-0.253,0.492-0.44,1.021-0.667,1.529
		c-0.831,1.867-2.232,3.436-3.799,4.749c-3.701,3.102-8.383,4.892-13.155,5.64c-4.771,0.747-9.65,0.5-14.439-0.13
		c-2.961-0.39-4.671-1.214-4.421-4.459c0.108-1.402,0.279-2.8,0.513-4.188c0.022-0.138,0.047-0.276,0.071-0.416
		c0.404-0.645,0.678-1.37,0.754-2.143l0.18-1.861l8.155,0.793c2.722,0.266,5.142-1.728,5.407-4.45
		c0.264-2.722-1.728-5.143-4.45-5.407l-13.082-1.272c-1.954-0.186-3.747,0.789-4.705,2.358c-1.296,0.733-2.144,2.465-3.627,2.938
		c-1.403,0.447-3.783,0.469-5.077-0.261c-0.546-0.307-0.987-0.759-1.407-1.225c5.171-4.898,10.667-9.481,16.407-13.667
		c1.634-1.192,3.292-2.355,4.948-3.517l6.559-4.599c2.748-1.927,5.576-3.897,8.466-5.713c1.03,0.407,2.039,0.86,3.021,1.389
		c1.055,0.571,2.104,1.242,3.121,1.891c1.576,1.007,3.206,2.05,4.997,2.818c1.405,0.604,2.865,1.02,4.275,1.421
		c1.249,0.357,2.427,0.693,3.569,1.148c2.143,0.854,4.084,2.092,6.14,3.404c0.64,0.408,1.28,0.817,1.927,1.214
		c6.556,4.021,13.781,6.786,20.841,9.396C509.149,244.438,508.874,244.913,508.578,245.379z M513.33,234.033
		c-0.706,2.188-1.426,4.389-2.303,6.513c-3.338-5.593-6.175-11.49-8.468-17.628c-0.321-0.862-0.687-1.839-1.386-2.658
		c-0.622-0.729-1.408-1.213-2.101-1.64l-0.409-0.253c-3.879-2.467-6.391-6.379-9.047-10.522c-0.638-0.994-1.287-2.004-1.961-3.002
		c0.52-0.144,1.044-0.31,1.563-0.533c1.838-0.792,3.258-2.129,4.63-3.421l0.186-0.173c1.68-1.579,3.406-3.108,5.167-4.599
		c0.693,0.51,1.525,0.849,2.444,0.938l8.689,0.844l3.886,9.912c0.11,0.281,0.251,0.544,0.404,0.792
		c0.837,3.448,1.701,6.899,1.771,10.462C516.495,224.182,514.903,229.163,513.33,234.033z M518.447,191.457
		c-0.681-1.734-2.277-2.94-4.132-3.122l-4.362-0.424c1.766-1.213,3.555-2.393,5.377-3.52c0.174,0.251,0.35,0.501,0.523,0.753
		c0.751,1.083,1.509,2.18,2.011,3.4c0.422,1.03,0.64,2.121,0.707,3.228L518.447,191.457z"/>
	<path fill="#FFFFFF" d="M622.914,223.126c-1.26-1.618-2.082-3.884-2.854-5.767c-1.662-4.054-2.763-8.32-3.461-12.641
		c-1.404-8.67-1.227-17.522-0.658-26.258c0.136-2.093,0.33-4.297,1.534-6.013c0.766-1.09,2.088-1.859,3.38-1.952
		c0.604,0.383,1.299,0.645,2.056,0.736l9.136,1.097c0.201,0.024,0.401,0.035,0.598,0.035c2.471,0,4.609-1.846,4.911-4.36
		c0.327-2.716-1.611-5.182-4.326-5.509l-4.329-0.52l0.298-3.064c0.127-1.308-0.271-2.612-1.105-3.627
		c-0.568-0.692-1.317-1.193-2.146-1.493c-0.272-0.551-0.612-1.087-0.932-1.595c-4.127-6.572-5.216-14.704-4.421-22.424
		c0.794-7.72,3.34-15.144,6.038-22.42c0.771-2.083,1.865-4.404,3.896-5.123c0.629,0.393,1.353,0.656,2.142,0.733l11.712,1.139
		c0.163,0.016,0.324,0.023,0.484,0.023c2.52,0,4.674-1.915,4.924-4.474c0.265-2.722-1.728-5.143-4.45-5.408l-6.783-0.66l0.433-4.439
		c0.127-1.308-0.271-2.612-1.104-3.626c-0.835-1.014-2.039-1.656-3.346-1.782l-5.234-0.509c-0.309-0.187-0.632-0.35-0.991-0.455
		c-0.967-0.285-1.996-0.204-3.005-0.215c-2.317-0.027-4.291-0.523-6.042-1.361c-3.352-1.605-5.883-4.465-8.431-7.683
		c-1.102-1.39-2.875-2.941-4.401-2.038c-1.34,0.792-1.161,2.77-0.7,4.258c1.369,4.426,3.676,8.553,4.636,13.086
		c2.384,11.252-3.836,22.524-4.134,34.023c-0.025,0.934-0.004,1.897,0.364,2.756c0.396,0.927,1.158,1.646,1.665,2.518
		c0.806,1.393,0.906,3.084,0.782,4.688c-0.033,0.423-0.084,0.844-0.147,1.262l0.004-1.02c0.009-2.048-1.247-3.891-3.155-4.633
		l-4.961-1.931l-4.803-8.659c-1.325-2.392-4.337-3.256-6.731-1.929c-2.393,1.326-3.255,4.34-1.929,6.732l5.669,10.224
		c0.562,1.011,1.457,1.794,2.534,2.213l3.46,1.347l-0.039,10.396c0,0.183,0.009,0.361,0.028,0.538
		c-0.019,2.064-0.04,4.057,0.281,6.2c0.409,2.709,0.939,5.514,0.07,8.194c-0.292,0.903-0.734,1.754-0.989,2.668
		c-0.345,1.232-0.338,2.53-0.401,3.809c-0.187,3.745-1.38,7.104-2.311,10.596c-1.765-3.064-3.847-6.046-4.874-9.403
		c-0.506-1.656-0.747-3.383-1.185-5.06c-1.189-4.562-3.878-8.72-7.548-11.68c-1.067-0.861-2.215-1.622-3.249-2.521
		c-2.777-2.412-4.62-5.689-6.737-8.696c-3.208-4.556-11.472-8.291-11.98-14.443c-0.121-1.484,0.334-2.301,1.053-2.843l2.264,0.22
		l0.156,2.495c0.152,2.426,2.044,4.383,4.463,4.617l10.647,1.035c0.163,0.016,0.323,0.023,0.484,0.023
		c2.519,0,4.674-1.914,4.923-4.473c0.265-2.722-1.728-5.144-4.449-5.408l-6.449-0.627l-0.157-2.495
		c-0.154-2.427-2.045-4.383-4.465-4.618l-7.026-0.683c-0.002,0-0.003,0-0.006-0.001c-0.497-0.284-0.989-0.608-1.455-1.026
		c-1.845-1.654-3.018-4.014-3.987-6.251c-2.609-6.016-4.584-12.215-5.549-18.7c-0.146-0.982-0.487-2.171-1.459-2.376
		c-0.844-0.178-1.638,0.583-1.888,1.409c-0.252,0.827-0.134,1.713-0.172,2.576c-0.103,2.376-1.819,5.192-3.714,6.652
		c-1.933,1.487-4.611,1.486-6.479,3.164c-1.265,1.135-1.842,2.222-2.023,3.282c-0.129,0.367-0.222,0.753-0.261,1.157l-0.535,5.504
		l-4.228-0.411c-2.722-0.257-5.143,1.728-5.407,4.45l-0.89,9.157c-0.266,2.722,1.727,5.143,4.45,5.408
		c0.163,0.016,0.324,0.023,0.483,0.023c2.519,0,4.674-1.914,4.923-4.473l0.413-4.228l4.132,0.402
		c1.946,1.03,3.626,2.646,4.821,4.509c2.027,3.16,2.856,6.938,3.301,10.667c0.485,4.061-0.015,7.963-0.233,11.85
		c-0.422,0.646-0.701,1.401-0.781,2.223l-0.451,4.653l-1.035-0.101c-1.304-0.128-2.61,0.271-3.625,1.105
		c-1.015,0.834-1.656,2.038-1.782,3.346l-0.892,9.167c-0.265,2.722,1.729,5.143,4.45,5.407c0.163,0.016,0.324,0.024,0.484,0.024
		c2.52,0,4.675-1.915,4.924-4.475l0.412-4.237l1.033,0.1c0.254,0.024,0.505,0.023,0.756,0.01c0.472,2.251-0.217,4.066-0.892,6.314
		c-1.475,4.92-3.18,9.781-4.229,14.818c-1.363,6.549-1.555,13.603,1.216,19.689c0.52,1.141,1.155,2.338,0.956,3.577
		c-0.104,0.658-0.48,1.169-0.982,1.604l-1.285-0.125c-2.723-0.258-5.144,1.729-5.408,4.45l-1.082,11.116
		c-0.265,2.723,1.729,5.144,4.45,5.409c0.163,0.015,0.324,0.022,0.484,0.022c2.52,0,4.675-1.914,4.925-4.472l0.601-6.189
		l1.103,0.107c0.301,0.73,0.416,1.524,0.521,2.31c0.463,3.506,0.925,7.013,1.389,10.519c0.06,0.454,0.119,0.929-0.034,1.362
		c-0.234,0.662-0.866,1.029-1.539,1.313c-1.229-0.06-2.438,0.332-3.391,1.116c-1.013,0.834-1.654,2.038-1.781,3.345l-1.051,10.806
		c-0.264,2.723,1.729,5.144,4.451,5.408c0.162,0.016,0.324,0.023,0.484,0.023c2.519,0,4.674-1.915,4.923-4.474l0.571-5.877
		l3.161,0.309c1.311,0.126,2.611-0.271,3.626-1.104c1.015-0.835,1.657-2.037,1.784-3.345l0.507-5.227
		c0.033-0.036,0.059-0.079,0.095-0.114c2.197-2.16,2.987-1.625,3.152-5.28c0.141-3.105-0.557-6.21-1.467-9.159
		c-1.254-4.068-2.955-8.021-3.694-12.212c-0.457-2.591-0.538-5.232-0.617-7.862c-0.106-3.495-0.213-6.99-0.32-10.485
		c-0.09-2.991-0.124-6.193,1.511-8.699c2.397-3.671,5.635-5.578,3.318-10.153c-1.585-3.126-2.883-6.396-3.878-9.757
		c-0.467-1.586-0.868-3.283-0.406-4.87c0.461-1.587,2.092-2.949,3.691-2.536c1.29,0.333,2.066,1.612,2.706,2.781
		c3.404,6.213,6.881,12.653,7.516,19.709c0.103,1.136,0.13,2.278,0.153,3.419c-0.004,0.045-0.015,0.089-0.02,0.135l-1.657,17.06
		c-0.218,2.227,1.086,4.322,3.179,5.112l4.125,1.556l-1.176,12.089c-0.265,2.722,1.728,5.143,4.449,5.408
		c0.163,0.016,0.325,0.024,0.485,0.024c2.52,0,4.675-1.914,4.925-4.474l1.542-15.861c0.014-0.146,0.004-0.286,0.006-0.43
		c0.874,1.297,1.613,2.66,2.189,3.998c1.951,4.522,5.323,8.476,7.039,13.039c0.44,1.17,0.614,2.42,0.786,3.657
		c0.232,1.673,0.464,3.347,0.696,5.02c0.057,0.41,0.113,0.811,0.188,1.185l-0.825,8.492c-0.264,2.723,1.728,5.143,4.449,5.408
		l5.08,0.493l-0.828,8.506c-0.264,2.723,1.728,5.145,4.45,5.409c0.163,0.016,0.324,0.022,0.484,0.022
		c2.52,0,4.675-1.914,4.925-4.472l1.306-13.435c0.022-0.241,0.022-0.477,0.013-0.709c1.131-3.255,2.801-6.279,4.669-9.169
		c0.371-0.576,0.759-1.166,0.896-1.839C626.324,225.673,624.106,224.658,622.914,223.126z M583.014,196.181l0.026-0.264
		c0.063,0.027,0.13,0.051,0.193,0.079c0.548,0.249,1.078,0.542,1.595,0.87L583.014,196.181z"/>
	<path fill="#FFFFFF" d="M814.864,26.449c-1.337-2.386-4.356-3.235-6.74-1.898l-11.642,6.525c-1.67,0.657-3.317,0.883-4.959,0.06
		c-7.865-3.939,4.75-20.835-4.514-20.786c-1.3,0.007-2.551,0.469-3.767,0.93c-6.654,2.527-13.237,5.265-20.017,7.455
		c-5.32,1.718-13.134,5.376-18.523,2.264c-1.32-0.762-2.282-2.156-2.686-3.628l1.911-3.113l10.546,1.025
		c2.724,0.262,5.144-1.728,5.408-4.45c0.264-2.723-1.729-5.144-4.45-5.408L741.805,4.1c-1.89-0.184-3.711,0.725-4.701,2.339
		l-3.989,6.505l-10.08,3.993c-4.054,0.835-8.106,1.669-12.159,2.504c-3.829,0.789-8.058,1.521-11.45-0.42
		c-1.86-1.063-3.01-3.299-3.099-5.388l3.801-2.675l15.266,0.515c2.698,0.094,5.023-2.049,5.115-4.783
		c0.094-2.733-2.048-5.024-4.781-5.116l-16.925-0.57c-1.091-0.044-2.138,0.279-3.019,0.899l-2.527,1.779
		c-5.32,1.515-10.305,4.938-15.53,6.767c-6.632,2.321-14.617,3.229-21.601,2.806c-4.201-0.254-8.362-1.131-12.319-2.567
		c-3.131-1.137-7.824-2.613-9.954-5.273c-0.48-0.6-0.89-1.274-1.506-1.733c-2.3-1.712-3.488,2.106-3.624,3.78
		c-0.204,2.508,0.787,5.164,1.742,7.433c2.37,5.625,4.136,11.503,5.268,17.501c0.54,2.863,0.88,5.767,1.271,8.644
		c0.369,2.726-0.119,5.896-0.387,8.653c-0.098,1.435-0.193,2.879-0.01,4.305c0.107,0.829,0.307,1.64,0.51,2.449l0.039,2.491
		l-6.56,8.18c-1.712,2.133-1.368,5.25,0.766,6.962c0.913,0.732,2.006,1.089,3.093,1.089c1.452,0,2.89-0.635,3.867-1.854l5.135-6.402
		c1.897-0.444,3.843-0.685,5.791-0.695c5.688-0.029,11.42,1.773,15.907,5.306c8.54,6.725,11.854,18.173,12.721,29.007
		c0.269,3.364,0.368,6.779,0.878,10.104l-0.724,7.453c-0.106,1.093,0.153,2.191,0.74,3.12l7.076,11.221
		c0.942,1.493,2.55,2.311,4.194,2.311c0.902,0,1.816-0.247,2.636-0.765c2.313-1.459,3.007-4.517,1.548-6.83l-6.172-9.788
		l0.269-2.781c0.847-1.343,2.722-1.905,4.306-1.528c1.756,0.418,3.175,1.708,4.328,3.098c6.958,8.37,6.563,20.368,9.014,30.973
		c0.406,1.762,0.915,3.536,1.909,5.046c1.427,2.167,3.711,3.59,5.923,4.945c4.697,2.878,9.395,5.755,14.091,8.633
		c2.515,1.541,5.446,3.556,6.465,6.471c0.197,0.563,0.072,1.608,0.323,2.062c0.458,0.826,1.06,0.352,2.062,0.241
		c2.067-0.229,4.188,0.01,6.148,0.708c2.312,0.826,4.517,2.45,5.218,4.802c0.314,1.059,0.305,2.187,0.195,3.285
		c-0.345,3.436-1.231,6.341-4.257,8.2c-3.735,2.294-8.945,1.85-12.237-1.046c-0.69-0.607-1.358-1.33-2.045-2.01
		c-0.685-1.617-2.211-2.82-4.083-3.002l-6.783-0.66l0.304-3.132c0.187-1.923-0.763-3.78-2.431-4.754l-12.405-7.251
		c-2.362-1.38-5.395-0.584-6.776,1.777c-1.379,2.361-0.583,5.395,1.778,6.773l6.536,3.821c0.274,0.428,0.514,0.877,0.702,1.354
		c0.734,1.863,0.476,4.277-1.135,5.468c-0.761,0.561-1.715,0.785-2.648,0.928c-5.862,0.892-12.094-1.107-16.345-5.242
		c-0.429-0.416-0.848-0.857-1.291-1.264c-0.8-1.151-2.081-1.959-3.586-2.105l-11.187-1.087l-0.451-2.453
		c-0.398-2.176-2.19-3.823-4.392-4.037l-11.286-1.097c-2.722-0.26-5.142,1.728-5.407,4.45c-0.265,2.722,1.727,5.143,4.45,5.407
		l7.567,0.736l0.04,0.223c0.074,0.849,0.102,1.696-0.17,2.461c-0.869,2.443-4.158,2.797-6.736,2.509
		c-4.479-0.499-8.886-1.64-13.044-3.378c-1.672-0.698-4.096-1.239-4.876,0.396c-0.326,0.684-0.17,1.494,0.068,2.213
		c0.651,1.966,1.856,3.708,2.539,5.663s0.727,4.365-0.713,5.853c-0.5,0.517-1.121,0.862-1.776,1.16l-0.11-0.01
		c-1.302-0.129-2.61,0.27-3.625,1.104c-1.013,0.835-1.654,2.038-1.782,3.346l-1.18,12.138c-0.264,2.722,1.729,5.143,4.45,5.407
		c0.162,0.016,0.324,0.024,0.485,0.024c2.519,0,4.674-1.915,4.923-4.474l0.701-7.209l5.504,0.536
		c0.418,0.039,0.825,0.021,1.223-0.039c1.744,0.195,3.487,0.046,5.216-0.731c1.612-0.726,3.171-1.657,4.915-1.945
		c1.243-0.205,2.499-0.071,3.755,0.089c0.45,0.19,0.936,0.316,1.447,0.366l9.113,0.887l1.303,6.581
		c0.425,2.144,2.204,3.755,4.38,3.966l10.434,1.015c0.162,0.017,0.324,0.023,0.484,0.023c2.519,0,4.674-1.914,4.924-4.474
		c0.264-2.722-1.727-5.144-4.45-5.407l-6.771-0.658l-1.128-5.696c0.032-0.048,0.054-0.098,0.089-0.145
		c1.126-1.515,3.382-1.422,5.253-1.178c8.254,1.075,16.585,2.168,24.404,5.019c1.051,0.382,2.156,0.791,3.269,1.093
		c0.763,0.699,1.746,1.169,2.855,1.276l4.441,0.432l-0.465,4.771c-0.127,1.308,0.271,2.611,1.104,3.626
		c0.835,1.015,2.038,1.655,3.345,1.783l13.414,1.304c0.164,0.016,0.325,0.024,0.487,0.024c2.518,0,4.674-1.914,4.922-4.474
		c0.265-2.722-1.727-5.144-4.449-5.408l-8.486-0.825l0.205-2.105c0.714-1.139,1.969-1.975,3.292-2.344
		c1.831-0.512,3.774-0.313,5.665-0.111c4.33,0.463,8.661,0.927,12.99,1.39c6.264,0.67,12.591,1.343,18.891,0.783
		c2.649-0.235,5.43-0.631,8.006-1.316c2.025-0.539,4.196-1.634,4.805-3.809c0.463-1.656-0.174-3.451-1.184-4.844
		c-1.012-1.391-2.371-2.483-3.601-3.687c-2.345-2.297-4.229-5.058-5.552-8.06c-1.126-2.552-2.775-5.249-1.719-8.055
		c0.591-1.569,1.567-3.008,1.857-4.659c0.435-2.48-0.796-5.018-2.593-6.783c-1.797-1.762-4.105-2.895-6.369-3.998
		c-2.287-1.114-4.575-2.229-6.863-3.343c-3.808-1.855-7.671-3.746-10.826-6.571c-3.157-2.826-5.57-6.759-5.612-10.995
		c-0.001-0.08,0.006-0.158,0.007-0.237c0.007-0.047,0.021-0.09,0.026-0.138l0.597-6.144l7.424,0.723
		c2.722,0.255,5.143-1.728,5.406-4.451c0.264-2.722-1.727-5.144-4.449-5.408l-12.352-1.202c-1.304-0.125-2.61,0.271-3.625,1.106
		c-0.684,0.562-1.18,1.299-1.48,2.115c-0.164,0.1-0.328,0.202-0.49,0.298c-7.517,4.474-18.812-1.068-19.872-9.751
		c-0.419-3.424,1.062-6.903,3.895-8.483l7.032,0.684c0.163,0.016,0.324,0.023,0.484,0.023c2.52,0,4.674-1.915,4.924-4.473
		c0.265-2.723-1.728-5.144-4.45-5.408l-7.421-0.721l0.245-2.525c0.264-2.722-1.728-5.143-4.45-5.408l-11.233-1.091
		c-0.227-0.085-0.45-0.169-0.675-0.257c-5.813-2.283-10.965-6.22-14.695-11.229c-0.911-1.223-1.752-2.541-2.118-4.022
		s-0.19-3.163,0.769-4.349c0.772-0.953,1.88-1.431,3.096-1.627l8.972,2.132c0.386,0.092,0.771,0.135,1.149,0.135
		c2.242,0,4.273-1.532,4.814-3.808c0.633-2.661-1.012-5.331-3.674-5.962l-7.625-1.813l-1.041-5.215
		c-0.427-2.14-2.203-3.749-4.377-3.959l-8.273-0.805c-0.059-0.012-0.114-0.033-0.174-0.043c-0.472-0.086-0.964-0.131-1.382-0.363
		c-0.545-0.301-0.878-0.866-1.251-1.364c-1.97-2.637-5.259-3.679-8.02-5.232c-1.606-0.903-6.836-4.608-3.498-6.388
		c1.009-0.538,2.228-0.408,3.361-0.264c4.546,0.581,9.089,1.178,13.631,1.793c0.732,0.1,1.475,0.197,2.222,0.278
		c0.504,0.24,1.055,0.402,1.643,0.46l8.183,0.794l2.833,7.769c0.734,2.008,2.632,3.255,4.652,3.255c0.564,0,1.139-0.098,1.697-0.302
		c2.571-0.938,3.893-3.78,2.956-6.35l-1.289-3.531c0.788-1.745,2.218-3.269,3.939-4.122c8.328-4.125,15.417,2.956,23.196,4.44
		c1.059,0.201,2.129,0.317,3.204,0.392c0.627,0.39,1.348,0.65,2.133,0.727l10.122,0.983l12.38,7.772
		c0.817,0.514,1.729,0.76,2.628,0.76c1.647,0,3.259-0.822,4.199-2.321c1.454-2.316,0.754-5.373-1.563-6.827l-10.632-6.675
		c-0.296-0.498-0.592-0.997-0.887-1.495c-0.338-0.569-0.686-1.168-0.727-1.829c-0.136-2.197,2.821-3.081,5.016-2.902
		c6.609,0.538,12.612,3.826,18.753,6.349c0.712,1.55,2.2,2.693,4.021,2.871l14.48,1.408c0.16,0.016,0.319,0.023,0.479,0.023
		c0.845,0,1.681-0.216,2.421-0.632l15.687-8.792C815.352,31.853,816.201,28.835,814.864,26.449z"/>
</g>
</svg>
